<?xml version="1.0" encoding="UTF-8" standalone="no"?>
<svg
   version="1.1"
   width="705.95651"
   height="700.00174"
   viewBox="26.5 228.49826 705.95651 700.00174"
   id="svg2"
   sodipodi:docname="test seal 3.svg"
   inkscape:version="1.4.3 (0d15f75042, 2025-12-25)"
   xmlns:inkscape="http://www.inkscape.org/namespaces/inkscape"
   xmlns:sodipodi="http://sodipodi.sourceforge.net/DTD/sodipodi-0.dtd"
   xmlns="http://www.w3.org/2000/svg"
   xmlns:svg="http://www.w3.org/2000/svg">
  <sodipodi:namedview
     id="namedview2"
     pagecolor="#ffffff"
     bordercolor="#000000"
     borderopacity="0.25"
     inkscape:showpageshadow="2"
     inkscape:pageopacity="0.0"
     inkscape:pagecheckerboard="0"
     inkscape:deskcolor="#d1d1d1"
     inkscape:zoom="1.6928529"
     inkscape:cx="352.95448"
     inkscape:cy="350.00089"
     inkscape:window-width="3440"
     inkscape:window-height="1400"
     inkscape:window-x="0"
     inkscape:window-y="0"
     inkscape:window-maximized="1"
     inkscape:current-layer="svg2" />
  <defs
     id="defs1">
    <clipPath
       id="clipPath1">
      <rect
         x="94.93889"
         y="648.94"
         transform="scale(0.3418,0.35211)"
         width="2048"
         height="1988"
         id="clip-1"
         fill="none" />
    </clipPath>
  </defs>
  <g
     fill="none"
     fill-rule="nonzero"
     stroke="none"
     stroke-width="1"
     stroke-linecap="butt"
     stroke-linejoin="miter"
     stroke-miterlimit="10"
     font-family="none"
     font-weight="none"
     font-size="none"
     id="g2">
    <g
       id="g1">
      <g
         id="stage">
        <g
           id="Layer2-1">
          <g
             clip-path="url(#clip-1)"
             id="Group-8879-1">
            <path
               d="M364.63502,244.79254c178.3397,-7.11662 328.50132,136.07965 335.35776,319.80465c6.85645,183.72676 -132.18652,338.37465 -310.53271,345.38873c-178.27134,7.00704 -328.31729,-136.16197 -335.17128,-319.81338c-6.85402,-183.6507 132.07831,-338.2663 310.34623,-345.38zM228.40196,415.59472c-14.71982,-38.75 -2.15469,-83.72394 33.03979,-105.19894l-0.27925,0.50915c-2.79043,5.03275 -6.32905,9.14859 -9.15366,14.42852c-10.11343,18.7007 -12.87788,40.68592 -7.72324,61.4243c5.48652,21.24577 18.99468,39.34754 37.51426,50.27148c3.53931,2.10775 6.65376,3.45845 10.28877,5.25915c-4.26528,-16.53627 -1.93389,-34.14296 6.47466,-48.89824c3.68081,-6.46655 8.57397,-12.87746 14.78169,-16.93521c-4.49121,7.69225 -4.2311,10.03486 -5.92163,18.51549c-4.86001,24.38521 7.42144,50.50211 28.04341,62.99718c9.38062,5.67817 17.77275,7.51937 28.56055,8.31056c-8.37983,-24.40317 -1.2209,-62.40211 21.99429,-75.70634c-2.72754,4.75493 -2.56348,7.12606 -3.98193,12.25282c-3.58545,12.96373 -5.30127,28.57641 -2.24561,41.83627c4.58691,19.91127 20.56592,38.90669 37.20117,49.88239c-14.00342,1.81197 -22.75342,4.28239 -35.51611,10.69507c-7.44263,-5.36373 -8.52817,-8.0419 -18.32954,-12.44754c-22.91577,-10.3 -47.84062,-13.78556 -72.15845,-19.12077c-10.90947,-2.39331 -18.79028,-5.45563 -29.10947,-8.92887c-23.24971,-7.82606 -43.14399,-17.91796 -59.39575,-37.43204c-9.09692,-10.92324 -15.02095,-20.51866 -17.67979,-35.25317c-2.98354,-16.53451 -0.60156,-34.13169 8.52236,-48.35141c-7.26079,5.13732 -19.97119,17.86796 -26.00938,24.27324c-40.18574,42.62007 -67.22734,96.54014 -77.71709,154.96549c-14.2355,78.94754 2.746,160.47923 47.1666,226.46162c31.9563,47.52817 76.52456,84.5669 128.37549,106.69014c11.64229,4.90141 23.54604,9.1162 35.65352,12.62324c-9.81333,-12.73239 -19.25479,-35.22887 -24.06694,-50.63028c-0.28335,-0.12676 -0.56499,-0.25704 -0.84424,-0.39437c-9.61748,-4.60915 -18.24375,-8.89437 -27.40391,-14.50352c-52.26177,-32.0669 -91.97104,-81.98239 -112.23276,-141.07042c-10.25425,-28.47887 -15.2855,-58.67254 -14.83843,-89.04542c0.39956,-22.04542 4.54009,-41.14296 13.64316,-61.22711c-5.72476,29.93063 -2.48008,71.79014 4.82925,101.05423c13.59976,54.4507 47.08047,112.4331 89.27256,148.28521c8.75273,7.39085 17.97544,14.17606 27.60591,20.30282c4.64399,2.92606 9.55322,5.52817 14.22661,8.41901c-1.95439,-13.98592 -2.97363,-35.20775 -1.08623,-49.27113c5.14814,-38.36268 23.60005,-80.25704 45.88726,-110.97535c2.88989,-3.96127 5.86182,-7.85915 8.91372,-11.69366c-1.26807,3.74296 -2.15024,9.63732 -2.87349,13.6831l-3.74097,21.31338c-6.03477,34.82394 -10.42207,69.92958 -13.14619,105.19366c-1.20996,15.51761 -1.59072,30.47887 -2.58262,45.78521c3.19717,0.67254 7.8979,2.3169 11.17334,3.33451c4.79609,1.48239 9.63594,2.80634 14.51235,3.97183c9.99277,-49.23239 34.95591,-102.99648 64.66797,-142.50352c4.59717,-6.10915 13.62402,-18.31338 19.5542,-22.87324c-2.5874,9.46479 -5.19189,18.4331 -7.45801,27.96127c-8.11768,34.09859 -10.27783,69.3838 -4.39893,104.05634c1.04248,6.14085 4.03662,21.64437 6.38135,27.08803c-3.36328,2.07394 -15.15527,9.3838 -17.85205,12.00352c46.93896,-3.05282 82.75586,-14.26761 122.16162,-41.15141c16.72754,-11.16901 31.92041,-24.60915 45.16504,-39.95775c49.26318,-57.64789 80.21973,-139.45775 71.65088,-216.23415c-0.46143,-4.13944 -1.4082,-8.44296 -1.63721,-12.56092c3.16846,9.62148 7.71777,18.86373 9.63867,28.7757c1.68848,8.72887 2.33789,18.3507 2.7207,27.23275c1.66113,44.54366 -7.62549,88.79718 -26.99854,128.65634c-30.26611,63.29577 -83.66846,111.64085 -148.49365,134.42606c-33.0415,11.51408 -67.99023,16.08099 -102.7749,13.42606c-12.50259,10.09859 -23.30303,23.50352 -34.24395,34.89789c56.471,9.30634 109.67852,4.3662 162.82109,-18.34507c71.54492,-30.50704 128.42676,-88.98944 158.18018,-162.63028c29.91064,-73.8662 30.00293,-156.96937 0.25635,-230.90458c-29.83203,-74.13697 -87.10352,-132.97606 -159.15088,-163.50282c-76.58301,-32.42465 -162.92534,-29.84542 -237.55566,7.09683c-11.5353,5.65704 -22.68506,12.11338 -33.37271,19.32394c-3.52632,2.37359 -17.47881,13.19965 -20.01221,14.13521c-0.74614,2.68908 -1.49058,5.38803 -2.20117,8.07923c-6.52319,24.70528 2.89399,51.28627 25.07148,63.78345c2.73643,1.5419 5.35562,2.78803 8.23628,4.06585zM301.59127,827.87324c0.19927,2.18662 0.17671,4.36972 0.18696,6.56338c0.054,11.47887 -0.31138,22.96831 -0.07075,34.44718c6.27983,1.66197 12.59351,3.18662 18.93623,4.57394c0.10049,-11.45423 1.16143,-23.67606 2.7272,-35.03873c0.16338,-1.18662 0.74751,-3.21127 0.61968,-4.32042c-7.49526,-1.96127 -14.9625,-4.03521 -22.39932,-6.22535z"
               id="CompoundPath-1-1-1"
               fill="#0e2559" />
            <path
               d="M255.25694,485.13451c1.18398,0.25563 4.1207,1.46127 5.54668,1.92641c3.7748,1.20317 7.67197,1.95106 11.61426,2.22817c5.64785,0.44613 12.00732,-0.22993 17.65381,-0.64965c18.30459,-1.36092 35.81724,2.54789 52.2498,10.82641c3.56904,1.79789 6.92788,3.75669 10.54238,5.76585c5.82866,3.23908 11.74927,8.74401 18.57734,9.48873c4.22051,0.19366 11.4085,-2.79049 15.55107,-4.09225c13.17627,-4.14014 24.60938,-8.63134 38.53418,-8.89331c13.35742,-0.67746 25.51514,4.8831 34.07373,15.62042c7.27344,9.12535 18.21094,11.12113 29.09375,14.56232c10.3291,3.29261 20.68555,6.48556 31.06934,9.57852c5.50293,1.625 11.77148,3.18486 16.9873,5.17113c7.18115,3.37535 8.66113,11.7743 8.66455,18.71514c0.01025,10.99014 -6.38477,19.56127 -13.89746,26.99789c-6.63086,5.57394 -11.375,5.12676 -19.34229,5.48592c-10.05908,0.4507 -20.5249,-0.30986 -30.32764,2.26408c-4.78857,1.25704 -8.45264,4.53521 -12.48926,7.26056c-22.13477,15.21479 -52.31885,14.35211 -73.48291,-2.37676c-10.35986,-8.19014 -18.60059,-19.83451 -22.33403,-32.90986c-1.37471,-4.8169 -1.91475,-9.88063 -2.5751,-14.85775c-7.00752,-6.00845 -17.58887,-2.4338 -25.90205,-1.92711c-8.26738,0.50387 -16.08394,0.93627 -24.47505,0.15035c-17.85273,-1.67289 -35.50586,-12.60986 -47.63042,-25.95599c-8.04453,-9.26725 -18.78345,-32.06514 -17.702,-44.37923zM290.76759,510.11831c9.71353,9.76479 28.04136,21.50634 42.07622,21.28803c0.55645,-0.00915 1.11289,-0.0257 1.66899,-0.04894c2.41855,-0.08662 5.06475,-0.23944 7.46553,-0.24331c-4.46865,-3.87993 -8.41025,-8.46479 -12.80337,-12.53662c-8.10195,-7.50915 -20.79458,-8.90317 -31.39678,-8.93873zM438.20714,547.03134c4.73047,-2.19718 9.68994,-3.49296 14.90918,-3.38134c0.83398,-0.0007 2.74121,0.13979 3.31201,-0.21021c-1.09717,-1.62183 -2.57031,-2.43803 -4.18701,-3.41901c-9.96338,-6.03803 -20.72656,-8.28063 -32.20752,-8.20739c0.48535,0.80669 8.21338,4.96268 9.9873,6.30387c3.8999,2.94613 5.32178,5.03486 8.18604,8.91408zM528.96788,567.34789c0.62549,-0.84261 1.43555,-1.87394 1.97217,-2.74577c0.78955,-1.39225 1.55859,-2.79613 2.31055,-4.21056c-2.69336,-0.32641 -4.4502,-0.61761 -7.14014,-0.40986c0.28027,1.66338 2.10547,5.61373 2.85742,7.3662z"
               id="CompoundPath-1-1-1-1"
               fill="#0e2559" />
            <path
               d="M430.92687,634.08099l23.07812,0.04225c0.45801,12.80986 2.47803,25.50704 6.01221,37.79577c7.48535,25.69366 24.09326,51.09507 44.1499,68.24296c8.67822,7.41549 18.15625,13.15493 28.05127,18.64789c-3.94092,0.4331 -9.62158,1.75 -13.6001,2.59859c-11.69629,2.44366 -23.28662,5.41197 -34.72998,8.89789c-16.40283,4.77113 -32.62451,11.59859 -48.09766,18.89789c-5.22607,2.46479 -10.31885,5.30634 -15.59619,7.58803c-5.60889,-17.69718 -9.35156,-32.76761 -11.12549,-51.53521c-2.77197,-32.32394 2.04736,-64.85563 14.04443,-94.85915c1.52783,-3.84859 5.38672,-13.27817 7.81348,-16.3169z"
               id="Path-1-1-1"
               fill="#0e2559" />
            <path
               d="M346.10211,563.14366c1.66387,-0.33415 15.02573,-0.15211 17.29971,-0.14542c3.97441,12.71866 5.29819,22.27289 12.53335,34.52289c9.00293,15.24648 24.35303,26.98944 41.08398,31.31338c-4.45703,4.94014 -8.75,8.67958 -13.18311,13.34155c-4.38184,4.68662 -8.24756,10.07394 -12.56787,14.78521c-20.76279,22.64789 -38.5,45.51408 -52.81855,73.16901c-3.88486,7.63028 -7.65112,15.27113 -10.49385,23.39437c-2.48213,7.08803 -4.35859,14.37676 -7.20508,21.3169c-0.78818,1.92254 -0.75708,3.96479 -1.89048,5.8838l-0.47373,-0.05282c-3.39609,-5.19014 3.6251,-66.30986 5.28145,-76.74296c2.28149,-14.3662 3.10283,-32.69366 5.00493,-47.0669c1.90654,-13.58099 3.88315,-27.15141 5.93052,-40.70775c1.25884,-7.91549 2.76411,-15.79225 3.88179,-23.72887c0.55405,-3.93662 2.22646,-26.58204 3.91016,-28.37289c0.83433,-0.88768 2.55391,-0.82042 3.70679,-0.90951z"
               id="Path-1-1-1-1"
               fill="#0e2559" />
            <path
               d="M573.54503,359.41972c2.80615,3.425 5.22266,10.1838 6.23096,14.48908c5.02783,21.2162 2.32764,42.47254 -8.82178,61.07289c-15.59277,26.02042 -40.86182,33.31444 -68.06543,38.80704c-17.37695,3.50845 -37.75488,16.23239 -47.09277,32.15951c-7.99463,-4.95317 -16.00977,-9.22782 -25.48437,-10.04507c9.54297,-4.09049 19.88916,-11.47324 27.34375,-18.83662c14.73486,-14.55035 7.98438,-51.10141 -5.8584,-63.77359c11.81934,3.325 17.10352,8.49965 24.20264,18.95176c5.70459,11.16092 6.35742,14.42782 7.27344,26.66831c5.35254,-0.90282 9.5498,-1.82535 14.01709,-5.20704c14.74512,-11.15739 13.83252,-29.30176 3.87256,-43.5588c13.01563,7.31514 20.49072,15.72359 20.37109,31.69824c0.5332,-0.64542 1.04932,-1.30387 1.55176,-1.97535c14.75537,-19.68204 13.4292,-47.79331 -1.30566,-66.9757c-3.8418,-5.00035 -7.61865,-8.18838 -12.48584,-11.975c30.60449,9.97113 48.87695,38.3081 40.94385,71.2c10.14111,-9.62183 15.28174,-18.13451 18.94922,-31.8162c3.70508,-13.81655 4.75781,-26.62817 4.35791,-40.88345z"
               id="Path-1-1-1-2"
               fill="#b78a28" />
            <path
               d="M228.40196,415.59472c-14.71982,-38.75 -2.15469,-83.72394 33.03979,-105.19894l-0.27925,0.50915c-2.79043,5.03275 -6.32905,9.14859 -9.15366,14.42852c-10.11343,18.7007 -12.87788,40.68592 -7.72324,61.4243c5.48652,21.24577 18.99468,39.34754 37.51426,50.27148c3.53931,2.10775 6.65376,3.45845 10.28877,5.25915c-4.26528,-16.53627 -1.93389,-34.14296 6.47466,-48.89824c3.68081,-6.46655 8.57397,-12.87746 14.78169,-16.93521c-4.49121,7.69225 -4.2311,10.03486 -5.92163,18.51549c-4.86001,24.38521 7.42144,50.50211 28.04341,62.99718c9.38062,5.67817 17.77275,7.51937 28.56055,8.31056c-8.37983,-24.40317 -1.2209,-62.40211 21.99429,-75.70634c-2.72754,4.75493 -2.56348,7.12606 -3.98193,12.25282c-3.58545,12.96373 -5.30127,28.57641 -2.24561,41.83627c4.58691,19.91127 20.56592,38.90669 37.20117,49.88239c-14.00342,1.81197 -22.75342,4.28239 -35.51611,10.69507c-7.44263,-5.36373 -8.52817,-8.0419 -18.32954,-12.44754c-22.91577,-10.3 -47.84062,-13.78556 -72.15845,-19.12077c-10.90947,-2.39331 -18.79028,-5.45563 -29.10947,-8.92887c-23.24971,-7.82606 -43.14399,-17.91796 -59.39575,-37.43204c-9.09692,-10.92324 -15.02095,-20.51866 -17.67979,-35.25317c-2.98354,-16.53451 -0.60156,-34.13169 8.52236,-48.35141c1.25474,-1.23592 2.18545,-3.51021 3.96689,-4.03838c-0.74614,2.68908 -1.49058,5.38803 -2.20117,8.07923c-6.52319,24.70528 2.89399,51.28627 25.07148,63.78345c2.73643,1.5419 5.35562,2.78803 8.23628,4.06585z"
               id="Path-1-1-1-3"
               fill="#b78a28" />
            <path
               d="M626.28087,507.07817c3.16846,9.62148 7.71777,18.86373 9.63867,28.7757c1.68848,8.72887 2.33789,18.3507 2.7207,27.23275c1.66113,44.54366 -7.62549,88.79718 -26.99854,128.65634c-30.26611,63.29577 -83.66846,111.64085 -148.49365,134.42606c-33.0415,11.51408 -67.99023,16.08099 -102.7749,13.42606c4.17505,-4.51056 23.5293,-19.98239 28.56738,-22.61268c46.93896,-3.05282 82.75586,-14.26761 122.16162,-41.15141c16.72754,-11.16901 31.92041,-24.60915 45.16504,-39.95775c49.26318,-57.64789 80.21973,-139.45775 71.65088,-216.23415c-0.46143,-4.13944 -1.4082,-8.44296 -1.63721,-12.56092z"
               id="Path-1-1-1-4"
               fill="#b78a28" />
            <path
               d="M276.73068,818.08803c-0.28335,-0.12676 -0.56499,-0.25704 -0.84424,-0.39437c-9.61748,-4.60915 -18.24375,-8.89437 -27.40391,-14.50352c-52.26177,-32.0669 -91.97104,-81.98239 -112.23276,-141.07042c-10.25425,-28.47887 -15.2855,-58.67254 -14.83843,-89.04542c0.39956,-22.04542 4.54009,-41.14296 13.64316,-61.22711c-5.72476,29.93063 -2.48008,71.79014 4.82925,101.05423c13.59976,54.4507 47.08047,112.4331 89.27256,148.28521c8.75273,7.39085 17.97544,14.17606 27.60591,20.30282c4.64399,2.92606 9.55322,5.52817 14.22661,8.41901c1.27832,7.97887 2.5939,15.7993 4.65664,23.60563c0.37803,1.42958 0.83022,3.13028 1.08521,4.57394z"
               id="Path-1-1-1-5"
               fill="#b78a28" />
            <path
               d="M302.36031,803.94366c3.19717,0.67254 7.8979,2.3169 11.17334,3.33451c4.79609,1.48239 9.63594,2.80634 14.51235,3.97183l-2.63184,14.99296c-0.25874,1.51408 -0.99429,6.66197 -1.42358,7.85563c-7.49526,-1.96127 -14.9625,-4.03521 -22.39932,-6.22535c0.44639,-7.99648 0.04922,-15.59859 0.76904,-23.92958z"
               id="Path-1-1-1-6"
               fill="#b78a28" />
          </g>
        </g>
      </g>
    </g>
  </g>
</svg>
